<svg width="4757" height="800" viewBox="0 0 4757 800" fill="none" xmlns="http://www.w3.org/2000/svg">
<rect width="800" height="800" rx="150" fill="url(#paint0_linear_45_361)"/>
<path fill-rule="evenodd" clip-rule="evenodd" d="M149.946 361.759C145.483 360.431 143.031 355.612 144.361 351.15C176.17 246.1 274.418 289.414 274.418 289.414C302.126 297.886 328.662 273.016 322.11 244.716L318.986 231.341C317.833 226.682 320.707 222.151 325.246 221.111L411.388 200.993C416.049 199.839 420.58 202.71 421.619 207.247L424.743 220.622C431.295 248.922 466.171 259.401 487.326 239.574L559.108 172.298C562.532 169.088 567.98 169.263 571.19 172.684L631.704 237.202C634.913 240.623 634.736 246.07 631.312 249.279L559.653 316.44C538.498 336.268 546.715 371.733 574.546 380.091L587.697 384.067C592.159 385.395 594.612 390.215 593.282 394.676L567.769 479.434C566.439 483.895 561.616 486.348 557.154 485.02L544.003 481.044C516.295 472.571 489.759 497.442 496.311 525.742C496.311 525.742 533.311 626.752 426.302 651.744C421.641 652.899 417.109 650.028 416.071 645.49C416.071 645.49 408.272 585.319 393.678 549.836C361.181 470.823 320.785 427.754 243.998 390.252C209.514 373.411 149.946 361.759 149.946 361.759ZM453.224 432.033C427.29 456.339 386.562 455.036 362.256 429.122C337.95 403.207 339.269 362.495 365.203 338.189C391.137 313.883 431.865 315.187 456.171 341.101C480.477 367.015 479.158 407.727 453.224 432.033Z" fill="white"/>
<path d="M354.887 535.846C347.772 521.508 333.734 496.602 312.011 472.395C289.176 446.95 262.997 430.25 248.861 422.296C243.351 419.196 236.597 421.906 234.511 427.873C216.144 480.398 208.843 526.759 178.805 586.788C176.547 591.299 181.044 596.364 185.772 594.604C254.081 569.18 293.268 559.738 347.214 550.328C354.036 549.138 357.964 542.047 354.887 535.846Z" fill="white"/>
<path d="M998.791 473.665H1068.42C1071.76 502.137 1101.43 520.799 1139.71 520.799C1178.23 520.799 1204.55 502.376 1204.55 477.015C1204.55 454.524 1188.04 442.083 1146.41 432.752L1101.43 422.942C1037.79 409.305 1006.45 377.005 1006.45 326.521C1006.45 262.879 1061.48 220.77 1138.52 220.77C1218.91 220.77 1269.39 262.161 1270.59 324.607H1202.88C1200.49 295.418 1174.88 277.713 1138.76 277.713C1103.11 277.713 1079.18 294.7 1079.18 320.301C1079.18 341.595 1095.93 353.558 1135.65 362.649L1177.52 371.502C1246.66 386.336 1276.81 416.004 1276.81 468.641C1276.81 535.633 1222.5 577.981 1136.84 577.981C1053.82 577.981 1000.94 538.504 998.791 473.665ZM1317 572V226.751H1385.67V361.214H1387.11C1400.74 328.914 1428.74 310.73 1467.74 310.73C1524.68 310.73 1557.22 347.576 1557.22 406.912V572H1487.36V421.746C1487.36 388.729 1471.09 368.631 1439.26 368.631C1406.25 368.631 1386.87 391.839 1386.87 425.574V572H1317ZM1603.16 572V315.516H1673.02V572H1603.16ZM1638.09 287.283C1617.03 287.283 1600.76 271.253 1600.76 251.155C1600.76 230.818 1617.03 215.027 1638.09 215.027C1659.14 215.027 1675.41 230.818 1675.41 251.155C1675.41 271.253 1659.14 287.283 1638.09 287.283ZM1869.45 311.448C1934.53 311.448 1974.48 360.975 1974.48 443.758C1974.48 526.302 1934.77 576.067 1870.65 576.067C1833.32 576.067 1804.61 557.884 1790.97 528.934H1789.54V655.74H1719.67V315.516H1788.58V360.257H1790.02C1803.89 330.11 1832.37 311.448 1869.45 311.448ZM1846 519.842C1880.93 519.842 1902.95 490.413 1902.95 443.758C1902.95 397.342 1880.93 367.435 1846 367.435C1811.79 367.435 1789.3 397.82 1789.3 443.758C1789.3 490.174 1811.79 519.842 1846 519.842ZM2088.85 572H2016.59V226.751H2242.69V286.326H2088.85V378.919H2229.29V436.102H2088.85V572ZM2367.58 525.584C2397.97 525.584 2423.09 505.726 2423.09 477.972V459.31L2369.02 462.659C2342.94 464.573 2328.11 476.297 2328.11 494.48C2328.11 513.621 2343.9 525.584 2367.58 525.584ZM2344.62 576.067C2295.81 576.067 2258.72 544.485 2258.72 498.309C2258.72 451.653 2294.61 424.617 2358.49 420.789L2423.09 416.961V399.974C2423.09 376.048 2406.34 362.171 2380.03 362.171C2353.95 362.171 2337.44 375.091 2334.09 393.992H2270.21C2272.84 344.227 2315.19 310.013 2383.14 310.013C2448.93 310.013 2491.76 343.987 2491.76 395.667V572H2424.29V532.762H2422.85C2408.5 560.037 2376.68 576.067 2344.62 576.067ZM2532.67 390.882C2532.67 342.073 2575.02 310.013 2640.82 310.013C2705.18 310.013 2747.05 342.552 2748 392.317H2683.64C2682.21 371.741 2665.7 359.061 2639.86 359.061C2615.7 359.061 2599.9 370.066 2599.9 386.575C2599.9 399.256 2610.91 407.869 2633.4 413.133L2682.45 423.66C2733.89 435.145 2754.7 455.481 2754.7 493.763C2754.7 544.246 2708.29 577.503 2640.58 577.503C2572.15 577.503 2530.04 544.485 2526.21 494.48H2594.4C2597.75 516.014 2614.74 528.455 2642.49 528.455C2669.05 528.455 2685.08 517.928 2685.08 501.18C2685.08 488.26 2676.47 481.082 2653.5 475.579L2606.12 465.052C2557.56 454.046 2532.67 428.685 2532.67 390.882ZM2808.3 256.419H2878.16V315.516H2925.53V368.152H2878.16V490.892C2878.16 510.511 2887.73 519.842 2908.31 519.842C2914.53 519.842 2920.99 519.363 2925.29 518.646V570.086C2918.12 571.761 2906.15 572.957 2892.04 572.957C2831.75 572.957 2808.3 552.859 2808.3 502.854V368.152H2772.17V315.516H2808.3V256.419ZM2956.88 473.665H3026.5C3029.85 502.137 3059.52 520.799 3097.8 520.799C3136.32 520.799 3162.64 502.376 3162.64 477.015C3162.64 454.524 3146.13 442.083 3104.5 432.752L3059.52 422.942C2995.88 409.305 2964.53 377.005 2964.53 326.521C2964.53 262.879 3019.56 220.77 3096.6 220.77C3176.99 220.77 3227.48 262.161 3228.67 324.607H3160.96C3158.57 295.418 3132.97 277.713 3096.84 277.713C3061.19 277.713 3037.27 294.7 3037.27 320.301C3037.27 341.595 3054.02 353.558 3093.73 362.649L3135.6 371.502C3204.75 386.336 3234.89 416.004 3234.89 468.641C3234.89 535.633 3180.58 577.981 3094.93 577.981C3011.91 577.981 2959.03 538.504 2956.88 473.665ZM3372.47 525.584C3402.85 525.584 3427.98 505.726 3427.98 477.972V459.31L3373.9 462.659C3347.82 464.573 3332.99 476.297 3332.99 494.48C3332.99 513.621 3348.78 525.584 3372.47 525.584ZM3349.5 576.067C3300.69 576.067 3263.61 544.485 3263.61 498.309C3263.61 451.653 3299.49 424.617 3363.38 420.789L3427.98 416.961V399.974C3427.98 376.048 3411.23 362.171 3384.91 362.171C3358.83 362.171 3342.32 375.091 3338.97 393.992H3275.09C3277.72 344.227 3320.07 310.013 3388.02 310.013C3453.82 310.013 3496.64 343.987 3496.64 395.667V572H3429.17V532.762H3427.74C3413.38 560.037 3381.56 576.067 3349.5 576.067ZM3640.92 525.584C3671.3 525.584 3696.42 505.726 3696.42 477.972V459.31L3642.35 462.659C3616.27 464.573 3601.44 476.297 3601.44 494.48C3601.44 513.621 3617.23 525.584 3640.92 525.584ZM3617.95 576.067C3569.14 576.067 3532.05 544.485 3532.05 498.309C3532.05 451.653 3567.94 424.617 3631.82 420.789L3696.42 416.961V399.974C3696.42 376.048 3679.67 362.171 3653.36 362.171C3627.28 362.171 3610.77 375.091 3607.42 393.992H3543.54C3546.17 344.227 3588.52 310.013 3656.47 310.013C3722.26 310.013 3765.09 343.987 3765.09 395.667V572H3697.62V532.762H3696.18C3681.83 560.037 3650.01 576.067 3617.95 576.067ZM3806 390.882C3806 342.073 3848.35 310.013 3914.15 310.013C3978.51 310.013 4020.38 342.552 4021.33 392.317H3956.97C3955.54 371.741 3939.03 359.061 3913.19 359.061C3889.03 359.061 3873.23 370.066 3873.23 386.575C3873.23 399.256 3884.24 407.869 3906.73 413.133L3955.78 423.66C4007.22 435.145 4028.03 455.481 4028.03 493.763C4028.03 544.246 3981.62 577.503 3913.91 577.503C3845.48 577.503 3803.37 544.485 3799.54 494.48H3867.73C3871.08 516.014 3888.07 528.455 3915.82 528.455C3942.38 528.455 3958.41 517.928 3958.41 501.18C3958.41 488.26 3949.8 481.082 3926.83 475.579L3879.46 465.052C3830.89 454.046 3806 428.685 3806 390.882Z" fill="url(#paint1_linear_45_361)"/>
<defs>
<linearGradient id="paint0_linear_45_361" x1="0" y1="400" x2="800" y2="400" gradientUnits="userSpaceOnUse">
<stop stop-color="#F9B16E"/>
<stop offset="1" stop-color="#F68080"/>
</linearGradient>
<linearGradient id="paint1_linear_45_361" x1="2032.05" y1="-12.5457" x2="2415.11" y2="1005.99" gradientUnits="userSpaceOnUse">
<stop/>
<stop offset="1" stop-color="#C77A60"/>
</linearGradient>
</defs>
</svg>
